<?xml version="1.0" encoding="UTF-8"?>
<svg version="1.1" viewBox="0 0 2048 1654" width="1280" height="1280" xmlns="http://www.w3.org/2000/svg">
<path transform="translate(0)" d="m0 0h2048v1654h-2048z"/>
<path transform="translate(603,213)" d="m0 0h331l46 1 31 3 23 4 22 6 22 8 22 10 24 14 16 11 14 11 11 9 14 12 10 11 11 14 10 13 11 17 12 22 11 25 8 24 6 24 5 30 29 5 25 6 30 10 20 9 16 9 19 12 13 10 15 13 20 18 10 11 15 20 12 17 12 21 9 20 9 25 7 24 5 30 2 18v48l-6 37-7 27-7 20-9 21-12 22-18 27-9 11-11 12-9 10-9 9-8 7-10 8-15 11-22 13-17 9-19 8-33 11-28 6-17 2-18 1h-349v317l-2 16-5 8-7 7-8 4-4 1h-12l-10-3-10-8-13-12-60-60-8-7-118-118-7-8-16-16-8-7-10-10-7-8-9-9-7-8-8-10-4-10-1-18v-304l1-42 6-12 10-11 2-1 355-1 30-1 28-3 25-5 21-6 15-6 25-13 21-14 13-10 10-9 15-15 11-13 14-22 14-25 3-8 10-32 5-18 2-4h-343l-8-4-12-11-261-261-6-8-6-12v-7l4-9 6-9 8-8 7-3z" fill="#FEFEFE"/>
<path transform="translate(1262,547)" d="m0 0 12 2 29 8 24 9 16 8 18 11 14 10 11 9 22 22 9 11 10 13 9 15 8 16 10 25 7 24 4 23 1 9v41l-3 20-8 32-10 25-10 20-9 14-10 14-11 12-4 5-8 7-11 10-16 12-21 13-17 9-21 8-24 7-20 4-7 1-20 1-378 1-7 3-11 8-4 7-1 5-1 30v203l1 50-7-6-33-33-8-7-19-19-7-8-30-30-7-8-20-20-7-8-50-50-8-7-8-9-1-3v-301l1-1 337-1 36-3 28-5 19-5 23-8 23-10 22-12 23-15 14-11 14-13 8-7 8-8 9-11 13-17 12-18 13-24 12-27 3-6 6-25 6-32z"/>
<path transform="translate(676,276)" d="m0 0 22 1h236l37 1 30 3 25 5 20 7 24 11 15 8 12 8 12 9 13 11 20 20 9 11 8 11 12 21 10 21 9 24 8 29-1 4-16 1h-299l-6-4-31-31-8-7-26-26-7-8-84-84-8-7-25-25-4-5-6-5z"/>
</svg>
